<?xml version="1.0" encoding="UTF-8"?>
<svg width="204px" height="99px" viewBox="0 0 204 99" version="1.1" xmlns="http://www.w3.org/2000/svg" xmlns:xlink="http://www.w3.org/1999/xlink">
    <g id="Artboard" stroke="none" stroke-width="1" fill="none" fill-rule="evenodd">
        <path d="M68.246122,63.3940021 L68.246122,54.1116856 L31.5387797,54.1116856 L31.5387797,63.3940021 L68.246122,63.3940021 Z M37.4457084,85.4395036 L57.9089969,85.4395036 C59.9131334,81.7476732 62.1282316,76.8955533 63.3940021,73.3092037 L37.762151,73.3092037 C39.9772492,76.6845915 41.8759049,80.7983454 42.7197518,83.6463289 L37.4457084,85.4395036 Z M32.8045502,38.1840745 L32.8045502,34.1758014 C29.2182006,37.9731127 25.3154085,41.2430196 21.2016546,44.196484 L80.4819028,44.196484 C76.4736298,41.2430196 72.8872802,38.0785936 69.4064116,34.4922441 L69.4064116,38.1840745 L32.8045502,38.1840745 Z M81.7476732,45.0403309 L81.7476732,73.3092037 L65.081696,73.3092037 L75.524302,75.524302 C73.8366081,79.1106515 72.0434333,82.4860393 70.4612203,85.4395036 L97.2533609,85.4395036 L97.2533609,96.0930714 L4.32471562,96.0930714 L4.32471562,85.4395036 L30.1675284,85.4395036 C29.2182006,82.4860393 27.5305067,78.7942089 25.8428128,75.9462254 L34.1758014,73.3092037 L18.7755946,73.3092037 L18.7755946,45.8841779 C15.1892451,48.4157187 11.4974147,50.5253361 7.70010341,52.4239917 C6.01240951,49.6814891 2.53154085,45.3567735 0,43.0361944 C6.11789038,40.5046536 12.4467425,36.4963806 17.9317477,31.7497415 C14.9782834,28.7962771 10.5480869,25.3154085 6.75077559,22.8893485 L13.5015512,15.9276112 C17.5098242,18.2481903 22.467425,21.5180972 25.3154085,24.4715615 C28.4798345,20.9906929 31.2223371,17.4043433 33.3319545,13.6070321 L8.12202689,13.6070321 L8.12202689,3.48086867 L39.344364,3.48086867 L41.4539814,2.95346432 L49.78697,7.17269907 C47.0444674,14.7673216 43.1416753,21.6235781 38.3950362,27.7414685 L63.7104447,27.7414685 C58.0144778,20.5687694 53.4788004,12.2357808 49.78697,3.3753878 L60.9679421,0 C62.4446743,3.6918304 64.3433299,7.38366081 66.3474664,10.7590486 C70.3557394,7.59462254 74.4694933,3.79731127 77.106515,0.632885212 L86.5997932,7.38366081 C81.958635,11.2864529 76.4736298,15.4002068 71.9379524,18.6701138 C73.4146846,20.5687694 74.9968976,22.2564633 76.6845915,24.0496381 C81.114788,20.6742503 85.8614271,16.3495346 88.9203723,12.868666 L98.0972079,19.4084798 C93.6670114,23.311272 88.3929679,27.319545 83.8572906,30.5894519 C89.2368149,34.9141675 95.2492244,38.5005171 101.789038,41.0320579 C98.8355739,43.352637 95.1437435,48.4157187 93.2450879,51.6856256 C89.131334,49.78697 85.3340228,47.5718718 81.7476732,45.0403309 Z M162.229576,49.6814891 L162.229576,51.8965874 C164.444674,56.0103413 167.081696,59.9131334 170.351603,63.4994829 C175.942089,59.3857291 182.376422,54.1116856 186.595657,49.6814891 L162.229576,49.6814891 Z M187.334023,49.6814891 L197.671148,57.1706308 C191.658738,62.1282316 184.486039,67.0858325 178.47363,70.9886246 C185.540848,76.4736298 194.190279,80.6928645 204,83.2244054 C201.152017,85.8614271 197.460186,91.0299897 195.561531,94.2998966 C181.743537,89.7642192 170.668046,81.8531541 162.229576,71.3050672 L162.229576,86.3888314 C162.229576,92.401241 160.858325,95.1437435 156.533609,96.8314374 C152.314374,98.4136505 146.512927,98.6246122 138.601861,98.6246122 C137.863495,95.2492244 136.070321,90.8190279 134.382627,87.7600827 C139.340228,88.0765253 145.458118,88.0765253 147.040331,87.9710445 C148.728025,87.9710445 149.36091,87.549121 149.36091,86.0723888 L149.36091,78.2668046 C137.652534,83.3298862 125.627715,88.4984488 116.028956,92.5067218 L109.172699,81.2202689 C119.087901,77.8448811 134.593588,72.0434333 149.36091,66.2419855 L149.36091,49.6814891 L110.122027,49.6814891 L110.122027,38.8169597 L176.469493,38.8169597 L176.785936,33.1209928 L119.931748,33.1209928 L119.931748,21.9400207 L177.418821,21.9400207 L177.629783,16.2440538 L116.450879,16.2440538 L116.450879,4.85211996 L179.317477,4.85211996 L181.638056,4.32471562 L191.764219,4.85211996 C191.553257,15.8221303 190.814891,27.9524302 189.760083,38.8169597 L202.628749,38.8169597 L202.628749,49.6814891 L187.334023,49.6814891 Z M143.770424,62.8665977 L134.80455,71.4105481 C131.007239,67.2967942 122.568769,61.6008273 115.923475,57.803516 L124.256463,50.2088935 C130.690796,53.5842813 139.445708,58.7528438 143.770424,62.8665977 Z" fill="#000000"></path>
    </g>
</svg>