<?xml version="1.0" encoding="UTF-8"?>
<svg width="204px" height="99px" viewBox="0 0 204 99" version="1.1" xmlns="http://www.w3.org/2000/svg" xmlns:xlink="http://www.w3.org/1999/xlink">
    <g id="Artboard" stroke="none" stroke-width="1" fill="none" fill-rule="evenodd">
        <path d="M32.407603,12.2312566 L25.1942978,22.3717001 C21.0126716,19.0263992 12.1267159,14.0084477 5.74973601,10.7676874 L12.6494192,1.67265048 C18.9218585,4.3907075 27.9123548,8.9904963 32.407603,12.2312566 Z M26.344245,40.7708553 L19.4445618,51.1203801 C15.2629356,47.8796199 6.37697994,42.9662091 0,39.8299894 L6.58606125,30.5258712 C12.7539599,33.2439282 21.7444562,37.6346357 26.344245,40.7708553 Z M22.4762408,56.0337909 L31.6758184,64.2925026 C26.1351637,75.2692714 19.5491024,87.186906 13.1721225,97.3273495 L2.71805702,88.9640971 C8.25871172,81.0190074 16.3083421,68.0559662 22.4762408,56.0337909 Z M70.7740232,83.2143611 L97.2228089,83.2143611 L97.2228089,95.0274551 L29.375924,95.0274551 L29.375924,83.2143611 L57.810982,83.2143611 L57.810982,61.8880676 L36.6937698,61.8880676 L36.6937698,50.0749736 L57.810982,50.0749736 L57.810982,31.6758184 L32.5121436,31.6758184 L32.5121436,19.8627244 L60.3199578,19.8627244 C59.0654699,15.4720169 55.9292503,8.88595565 53.0021119,3.86800422 L64.5015839,0 C67.6378036,4.91341077 71.2967265,11.7085533 72.7602957,16.2038015 L62.6198522,19.8627244 L94.5047518,19.8627244 L94.5047518,31.6758184 L70.7740232,31.6758184 L70.7740232,50.0749736 L90.7412883,50.0749736 L90.7412883,61.8880676 L70.7740232,61.8880676 L70.7740232,83.2143611 Z M168.310454,41.0844773 L179.078141,41.0844773 L179.078141,18.3991552 L168.310454,18.3991552 L168.310454,41.0844773 Z M148.44773,53.1066526 L148.44773,84.782471 C148.44773,85.5142555 148.44773,86.1414995 148.343189,86.7687434 C153.674762,76.9419219 155.451954,64.6061246 156.079197,53.1066526 L148.44773,53.1066526 Z M127.225977,41.0844773 L136.530095,41.0844773 L136.530095,18.3991552 L127.225977,18.3991552 L127.225977,41.0844773 Z M201.24076,41.0844773 L201.24076,53.1066526 L191.413939,53.1066526 L191.413939,84.3643083 C191.413939,90.218585 190.263992,93.4593453 186.709609,95.4456177 C183.155227,97.5364308 178.137276,97.7455121 171.028511,97.7455121 C170.610348,94.5047518 168.937698,89.1731785 167.265048,86.0369588 C171.237592,86.2460401 175.837381,86.2460401 177.091869,86.2460401 C178.659979,86.1414995 179.078141,85.6187962 179.078141,84.155227 L179.078141,53.1066526 L167.996832,53.1066526 C167.160507,68.4741288 164.233369,86.5596621 155.765576,98.686378 C154.197466,96.5955649 150.329461,92.8321014 147.715945,90.8458289 C147.088701,92.8321014 145.834213,94.2956705 143.847941,95.3410771 C140.50264,97.3273495 135.484688,97.5364308 128.585005,97.5364308 C128.062302,94.4002112 126.285111,89.3822598 124.717001,86.4551214 C128.794087,86.6642027 133.184794,86.6642027 134.543823,86.5596621 C136.007392,86.5596621 136.530095,86.0369588 136.530095,84.6779303 L136.530095,53.1066526 L126.807814,53.1066526 C125.866948,68.5786695 122.417107,86.8732841 112.903907,99 C111.126716,96.4910243 106.422386,91.6821542 104.122492,90.1140444 C111.858501,79.7645195 114.262936,65.7560718 114.99472,53.1066526 L104.436114,53.1066526 L104.436114,41.0844773 L115.308342,41.0844773 L115.308342,6.89968321 L148.44773,6.89968321 L148.44773,41.0844773 L156.288279,41.0844773 L156.288279,6.89968321 L191.413939,6.89968321 L191.413939,41.0844773 L201.24076,41.0844773 Z" fill="#000000"></path>
    </g>
</svg>