<?xml version="1.0" encoding="UTF-8"?>
<svg width="204px" height="99px" viewBox="0 0 204 99" version="1.1" xmlns="http://www.w3.org/2000/svg" xmlns:xlink="http://www.w3.org/1999/xlink">
    <g id="Artboard" stroke="none" stroke-width="1" fill="none" fill-rule="evenodd">
        <path d="M34.7775468,54.8170478 L24.3866944,58.6340956 L24.3866944,85.035343 C24.3866944,90.972973 23.4324324,94.2598753 20.1455301,96.2744283 C16.964657,98.3950104 12.4054054,98.9251559 5.83160083,98.8191268 C5.40748441,95.5322245 4.02910603,90.2307692 2.43866944,86.7318087 C6.04365904,86.8378378 9.54261954,86.8378378 10.8149688,86.8378378 C12.0873181,86.8378378 12.5114345,86.4137214 12.5114345,85.035343 L12.5114345,62.7692308 L3.07484407,66.0561331 L0,53.968815 C3.6049896,53.1205821 7.84615385,51.8482328 12.5114345,50.3638254 L12.5114345,31.7027027 L1.16632017,31.7027027 L1.16632017,20.039501 L12.5114345,20.039501 L12.5114345,0.106029106 L24.3866944,0.106029106 L24.3866944,20.039501 L33.6112266,20.039501 L33.6112266,31.7027027 L24.3866944,31.7027027 L24.3866944,46.4407484 L32.7629938,43.6839917 L34.7775468,54.8170478 Z M78.037422,67.964657 L53.014553,67.964657 C56.4074844,71.7817048 60.966736,75.0686071 66.1621622,77.9313929 C70.8274428,75.1746362 74.962578,71.8877339 78.037422,67.964657 Z M48.4553015,39.8669439 L60.2245322,39.8669439 L60.2245322,12.4054054 C56.5135135,14.2079002 52.4844075,15.7983368 48.4553015,17.1767152 L48.4553015,24.2806653 L56.6195426,24.2806653 L56.6195426,33.1871102 L48.4553015,33.1871102 L48.4553015,39.8669439 Z M87.8981289,57.1496881 L95.2141372,60.5426195 C91.2910603,70.0852391 85.2474012,77.4012474 77.7193347,83.1268191 C84.6112266,85.4594595 92.1392931,87.3679834 100.303534,88.5343035 C97.8648649,90.972973 94.5779626,95.6382536 93.0935551,98.6070686 C83.3388773,96.8045738 74.2203742,93.9417879 66.0561331,90.018711 C56.8316008,94.3659044 46.2286902,97.2286902 34.7775468,99.1372141 C33.9293139,96.1683992 31.4906445,91.6091476 29.5821206,89.0644491 C38.5945946,87.8981289 47.1829522,86.0956341 54.8170478,83.3388773 C49.1975052,79.2037422 44.3201663,74.5384615 40.5031185,69.1309771 L43.3659044,67.964657 L37.3222453,67.964657 L37.3222453,57.5738046 L60.2245322,57.5738046 L60.2245322,49.7276507 L37.6403326,49.7276507 L37.6403326,11.1330561 L37.7463617,11.1330561 C43.5779626,9.11850312 50.045738,5.83160083 53.8627859,2.86278586 L60.2245322,9.11850312 L60.2245322,0 L71.3575884,0 L71.3575884,39.8669439 L83.975052,39.8669439 L83.975052,33.1871102 L74.7505198,33.1871102 L74.7505198,24.2806653 L83.975052,24.2806653 L83.975052,17.6008316 L74.4324324,17.6008316 L74.4324324,7.63409563 L95.2141372,7.63409563 L95.2141372,49.7276507 L71.3575884,49.7276507 L71.3575884,57.5738046 L85.7775468,57.5738046 L87.8981289,57.1496881 Z M131.264033,75.0686071 L142.715177,79.8399168 C135.823285,86.4137214 125.432432,93.3056133 117.162162,97.6528067 C114.935551,95.3201663 110.482328,91.1850312 107.725572,89.1704782 C116.101871,85.6715177 125.644491,80.3700624 131.264033,75.0686071 Z M186.081081,70.1912682 L164.133056,71.5696466 L164.133056,86.2016632 C164.133056,91.9272349 162.966736,95.002079 158.407484,96.8045738 C153.954262,98.6070686 148.016632,98.7130977 140.382536,98.7130977 C139.746362,95.2141372 137.731809,90.3367983 136.035343,87.1559252 C141.548857,87.3679834 147.910603,87.4740125 149.713098,87.3679834 C151.515593,87.2619543 151.939709,86.9438669 151.939709,85.7775468 L151.939709,72.4178794 C124.47817,74.3264033 119.81289,74.962578 116.313929,76.1288981 C115.889813,74.1143451 114.405405,68.7068607 113.345114,65.950104 C117.37422,65.4199584 121.509356,64.04158 127.659044,61.6029106 C130.097713,60.6486486 134.762994,58.8461538 140.382536,56.3014553 C128.401247,57.1496881 125.75052,57.5738046 124.054054,58.2099792 C123.629938,56.0893971 121.933472,51 120.873181,48.1372141 C123.31185,47.7130977 125.75052,46.7588358 128.825364,45.0623701 C131.264033,43.7900208 138.261954,40.2910603 144.72973,35.9438669 L120.555094,35.9438669 L120.555094,47.3950104 L108.573805,47.3950104 L108.573805,25.4469854 L149.39501,25.4469854 L149.39501,19.0852391 L110.906445,19.0852391 L110.906445,8.27027027 L149.39501,8.27027027 L149.39501,0 L162.754678,0 L162.754678,8.27027027 L201.137214,8.27027027 L201.137214,19.0852391 L162.754678,19.0852391 L162.754678,25.4469854 L203.575884,25.4469854 L203.575884,47.3950104 L191.064449,47.3950104 L191.064449,35.9438669 L156.923077,35.9438669 L159.255717,37.95842 C153.742204,41.6694387 147.274428,45.2744283 140.594595,48.4553015 L158.089397,47.8191268 C163.70894,44.8503119 169.116424,41.7754678 173.781705,38.5945946 L182.476091,45.9106029 C170.81289,52.8024948 157.983368,58.8461538 145.259875,63.9355509 L178.234927,62.1330561 C176.114345,60.1185031 173.993763,58.2099792 172.085239,56.5135135 L180.991684,51 C188.201663,57.1496881 197.744283,65.950104 202.409563,71.8877339 L192.866944,78.1434511 C191.276507,75.8108108 188.837838,73.1600832 186.081081,70.1912682 Z M168.586279,80.5821206 L178.234927,74.4324324 C186.293139,78.6735967 197.850312,85.4594595 204,90.2307692 L193.609148,97.3347193 C188.307692,92.6694387 177.068607,85.3534304 168.586279,80.5821206 Z" fill="#000000"></path>
    </g>
</svg>